<?xml version="1.0" standalone="no"?>
<!DOCTYPE svg PUBLIC "-//W3C//DTD SVG 20010904//EN"
 "http://www.w3.org/TR/2001/REC-SVG-20010904/DTD/svg10.dtd">
<svg version="1.0" xmlns="http://www.w3.org/2000/svg"
 width="500.000000pt" height="242.000000pt" viewBox="0 0 500.000000 242.000000"
 preserveAspectRatio="xMidYMid meet">

<g transform="translate(0.000000,242.000000) scale(0.100000,-0.100000)"
fill="#000000" stroke="none">
<path d="M2088 1802 c-140 -342 -414 -1011 -433 -1054 l-15 -38 38 0 c37 0 39
2 62 58 12 31 26 61 30 65 6 7 489 12 495 5 2 -2 14 -30 27 -63 l24 -60 207
-3 c141 -2 207 1 207 8 0 6 -47 124 -104 263 -57 139 -154 376 -216 527 -62
151 -135 329 -162 395 -27 66 -52 123 -56 127 -4 3 -51 -100 -104 -230z m226
-215 c65 -160 152 -373 192 -472 41 -98 74 -183 74 -187 0 -4 -58 -8 -129 -8
l-128 0 -83 198 c-45 108 -105 250 -132 314 l-50 118 42 112 c24 62 52 137 63
166 11 28 23 52 26 52 3 0 59 -132 125 -293z m-271 -170 c9 -23 54 -136 102
-252 48 -115 89 -218 92 -227 5 -17 -10 -18 -217 -18 l-222 0 5 22 c13 48 213
526 219 522 3 -2 13 -23 21 -47z m581 -604 l16 -33 -129 0 c-126 0 -129 1
-145 25 -9 13 -16 28 -16 32 0 4 58 8 129 8 l130 0 15 -32z"/>
<path d="M507 1743 c-4 -3 -7 -237 -7 -520 l0 -513 555 0 555 0 0 35 0 35
-351 0 -350 0 3 31 3 31 345 1 345 2 0 35 0 35 -347 3 -348 2 0 375 0 375 196
0 195 0 -3 38 -3 37 -391 3 c-215 1 -393 -1 -397 -5z m324 -110 c5 -117 6
-664 2 -687 l-5 -26 -124 0 -124 0 0 375 0 375 125 0 125 0 1 -37z m-1 -803
c4 -7 5 -21 3 -31 -5 -17 -16 -19 -129 -19 l-124 0 0 29 c0 36 2 36 138 35 71
-1 107 -5 112 -14z"/>
<path d="M2913 886 c-92 -30 -143 -81 -143 -143 1 -45 42 -83 89 -83 25 0 25
3 6 -50 -23 -65 -21 -69 26 -59 112 25 215 106 240 187 10 35 9 45 -7 79 -32
64 -128 96 -211 69z m136 -22 c53 -21 75 -55 68 -107 -7 -48 -29 -81 -85 -124
-40 -31 -150 -78 -159 -69 -3 3 1 24 9 48 11 33 23 47 51 61 20 10 37 23 37
28 0 5 -13 3 -30 -6 -34 -18 -35 -17 -15 48 l14 48 -37 -7 c-47 -9 -50 -12
-18 -20 30 -7 31 -12 12 -59 -13 -30 -18 -33 -42 -29 -58 11 -83 57 -59 107
38 79 162 118 254 81z"/>
<path d="M3699 783 c-6 -16 -13 -40 -16 -55 -5 -23 -12 -27 -57 -34 l-51 -8
50 -6 c43 -4 50 -8 53 -28 6 -40 -75 -96 -131 -90 -28 3 -33 7 -37 37 -4 30
-7 32 -18 18 -11 -12 -29 -16 -73 -14 -54 2 -59 4 -59 25 0 12 -4 22 -8 22 -4
0 -37 -20 -72 -45 -43 -31 -74 -45 -96 -45 -38 0 -58 21 -49 51 5 14 4 19 -4
15 -19 -12 -13 -64 8 -76 29 -15 57 -12 102 10 34 18 40 19 45 5 8 -20 23 -19
47 3 23 19 21 16 -25 -57 -31 -50 -38 -101 -13 -101 17 0 39 43 55 107 6 22
18 51 28 63 16 19 22 21 41 11 12 -7 31 -9 42 -6 14 5 26 -1 41 -20 18 -23 27
-26 59 -22 20 3 54 16 74 30 l38 26 28 -30 c32 -34 51 -36 101 -10 35 18 37
18 41 0 7 -26 32 -24 51 3 15 21 16 21 36 3 27 -24 80 -23 122 3 l33 21 22
-25 c12 -14 33 -24 48 -24 30 0 90 29 122 59 27 26 35 26 58 1 17 -19 17 -20
0 -26 -10 -4 -26 -2 -37 5 -11 7 -23 9 -26 6 -12 -12 31 -35 65 -35 33 0 126
40 138 60 11 18 -13 11 -51 -15 -44 -30 -64 -32 -64 -6 0 10 -7 24 -15 31 -10
8 -13 21 -9 39 6 24 3 22 -42 -20 -69 -65 -93 -79 -135 -79 -56 0 -65 30 -32
111 33 81 36 124 8 124 -28 0 -47 -46 -53 -128 l-5 -69 -42 -20 c-51 -25 -91
-19 -107 17 -15 32 -19 31 -42 -8 -10 -17 -21 -27 -23 -20 -6 18 14 51 37 58
20 6 28 25 11 25 -4 0 -28 -15 -52 -33 -59 -45 -83 -57 -113 -57 -35 0 -60 48
-45 87 14 37 25 43 84 43 31 0 45 3 37 9 -8 5 -34 6 -58 3 l-45 -5 11 27 c5
15 10 41 10 57 0 38 -27 39 -41 2z m17 -44 c-9 -27 -14 -36 -15 -22 -1 24 17
78 24 71 3 -2 -1 -24 -9 -49z m420 12 c-3 -21 -13 -53 -21 -72 l-16 -34 5 52
c5 50 20 93 33 93 3 0 3 -17 -1 -39z m-801 -151 c-9 -16 -20 -30 -25 -30 -14
0 -12 12 6 38 23 33 37 27 19 -8z m-12 -122 c-18 -47 -33 -70 -33 -50 0 15 38
92 45 92 3 0 -3 -19 -12 -42z"/>
<path d="M3125 659 c-11 -17 1 -21 15 -4 8 9 8 15 2 15 -6 0 -14 -5 -17 -11z"/>
<path d="M3495 659 c-11 -17 1 -21 15 -4 8 9 8 15 2 15 -6 0 -14 -5 -17 -11z"/>
</g>
</svg>
